<?xml version="1.0" encoding="utf-8"?>
<svg width="800px" height="800px" viewBox="0 0 24 24" xmlns="http://www.w3.org/2000/svg">
<path d="M 388.51 412.274 C 388.51 419.759 384.593 428.09 379.544 432.872 C 374.532 437.619 366.087 441.19 358.428 441.19 C 350.769 441.19 342.324 437.619 337.312 432.872 C 332.263 428.09 328.346 419.759 328.346 412.274 C 328.346 404.789 332.263 396.458 337.312 391.676 C 342.324 386.929 350.769 383.358 358.428 383.358 C 366.087 383.358 374.532 386.929 379.544 391.676 C 384.593 396.458 388.51 404.789 388.51 412.274 Z M 368.541 403.292 C 365.56 400.469 362.964 399.358 358.428 399.358 C 353.892 399.358 351.296 400.469 348.315 403.292 C 345.372 406.08 344.346 408.208 344.346 412.274 C 344.346 416.34 345.372 418.468 348.315 421.256 C 351.296 424.079 353.892 425.19 358.428 425.19 C 362.964 425.19 365.56 424.079 368.541 421.256 C 371.484 418.468 372.51 416.34 372.51 412.274 C 372.51 408.208 371.484 406.08 368.541 403.292 Z M 194.063 412.057 C 194.063 419.542 190.146 427.873 185.097 432.655 C 180.085 437.402 171.64 440.973 163.981 440.973 C 156.322 440.973 147.877 437.402 142.865 432.655 C 137.816 427.873 133.899 419.542 133.899 412.057 C 133.899 404.572 137.816 396.241 142.865 391.459 C 147.877 386.712 156.322 383.141 163.981 383.141 C 171.64 383.141 180.085 386.712 185.097 391.459 C 190.146 396.241 194.063 404.572 194.063 412.057 Z M 174.094 403.075 C 171.113 400.252 168.517 399.141 163.981 399.141 C 159.445 399.141 156.849 400.252 153.868 403.075 C 150.925 405.863 149.899 407.991 149.899 412.057 C 149.899 416.123 150.925 418.251 153.868 421.039 C 156.849 423.862 159.445 424.973 163.981 424.973 C 168.517 424.973 171.113 423.862 174.094 421.039 C 177.037 418.251 178.063 416.123 178.063 412.057 C 178.063 407.991 177.037 405.863 174.094 403.075 Z M 115.211 109.851 L 430.91 103.692 L 438.948 103.536 L 437.998 111.518 L 407.261 369.727 L 406.524 375.914 L 400.294 375.9 C 400.294 375.9 333.476 375.752 266.668 375.604 C 233.264 375.53 199.862 375.456 174.816 375.4 C 162.293 375.373 151.859 375.35 144.558 375.333 C 140.908 375.325 138.041 375.319 136.087 375.315 C 135.111 375.312 134.363 375.311 133.859 375.31 C 133.607 375.309 133.417 375.309 133.289 375.308 C 133.226 375.308 133.178 375.308 133.146 375.308 C 133.13 375.308 133.118 375.308 133.11 375.308 C 133.106 375.308 133.103 375.308 133.101 375.308 C 133.1 375.308 133.098 375.308 133.097 375.308 C 133.097 375.308 133.095 375.308 133.093 375.308 C 133.091 375.308 133.083 375.308 133.077 375.308 C 133.072 375.308 133.055 375.308 133.042 375.308 C 133.024 375.307 132.922 375.305 132.839 375.303 C 132.735 375.297 131.731 375.108 130.833 374.926 C 130.505 374.793 129.632 374.347 129.086 374.032 C 128.216 373.145 126.056 370.077 126.126 367.927 C 126.118 368.096 126.115 368.29 126.115 368.363 C 126.116 368.454 126.121 368.589 126.123 368.631 C 126.125 368.67 126.128 368.727 126.129 368.735 C 126.128 368.727 126.127 368.716 126.124 368.667 C 126.115 368.557 126.102 368.393 126.083 368.16 C 126.044 367.688 125.985 366.989 125.906 366.067 C 125.75 364.222 125.517 361.516 125.22 358.068 C 124.625 351.171 123.771 341.318 122.744 329.492 C 120.69 305.84 117.943 274.303 115.194 242.766 C 109.696 179.691 105.632 133.152 104.46 119.726 L 46.034 75.775 L 54.45 64.587 L 115.22 110.301 Z M 126.97 364.955 C 126.676 365.495 126.368 366.412 126.292 366.745 C 126.23 367.013 126.177 367.393 126.15 367.637 C 126.325 366.271 127.389 364.654 128.299 363.542 C 127.655 364.074 127.168 364.592 126.97 364.955 Z M 129.141 241.55 C 131.89 273.088 134.637 304.626 136.691 328.28 C 137.719 340.108 138.573 349.965 139.168 356.866 C 139.311 358.526 139.44 360.017 139.552 361.322 C 141.007 361.325 142.692 361.329 144.589 361.333 C 151.89 361.35 162.324 361.373 174.847 361.4 C 199.893 361.456 233.295 361.53 266.699 361.604 C 333.508 361.752 376.018 361.846 394.095 361.886 L 423.146 117.846 L 118.867 123.783 C 120.543 142.977 124.845 192.264 129.141 241.55 Z M 133.115 375.308 C 133.121 375.308 133.164 375.308 133.201 375.307 C 133.228 375.307 133.344 375.304 133.432 375.301 C 133.499 375.297 133.717 375.28 133.869 375.267 C 134.056 375.242 134.759 375.091 135.276 374.966 C 135.579 374.852 136.377 374.476 136.873 374.213 C 137.126 373.989 137.512 373.584 137.931 373.074 C 136.613 374.161 134.635 375.308 133.115 375.308 Z" />
</svg>