<?xml version="1.0" encoding="utf-8"?>
<svg width="800px" height="800px" viewBox="0 0 24 24" xmlns="http://www.w3.org/2000/svg">
<path d="M 465.752 236.55 C 465.752 238.488 465.724 240.422 465.671 242.349 C 468.571 239.018 471.118 235.674 473.302 232.322 C 481.506 219.732 484.3 207.728 480.932 196.057 C 477.566 184.384 468.555 174.833 454.427 166.883 C 454.074 166.686 453.717 166.488 453.359 166.293 C 461.363 188.265 465.752 211.963 465.752 236.55 Z M 405.792 381.635 C 368.934 418.575 317.314 441.732 261.032 441.732 C 204.747 441.732 153.128 418.575 116.27 381.635 C 101.684 367.015 89.251 350.077 79.552 331.447 C 71.412 328.671 64.072 325.471 57.683 321.876 C 42.869 313.542 32.562 302.594 28.926 289.989 C 25.289 277.384 28.472 263.633 37.074 250.433 C 41.861 243.085 48.413 235.699 56.468 228.457 C 58.559 175.205 81.184 126.63 116.27 91.464 C 153.128 54.526 204.747 31.368 261.032 31.368 C 317.314 31.368 368.934 54.526 405.792 91.464 C 424.959 110.677 440.408 133.89 450.822 159.683 C 453.111 160.775 455.303 161.909 457.394 163.084 C 472.206 171.418 482.514 182.366 486.15 194.972 C 489.786 207.577 486.602 221.328 478.003 234.529 C 474.621 239.719 470.358 244.929 465.307 250.092 C 461.939 301.202 439.677 347.674 405.792 381.635 Z M 56.309 236.55 C 56.309 236.146 56.31 235.744 56.312 235.342 C 50.419 241.063 45.552 246.841 41.773 252.639 C 33.571 265.228 30.775 277.232 34.142 288.905 C 37.51 300.578 46.521 310.127 60.648 318.076 C 65.439 320.771 70.747 323.226 76.543 325.434 C 63.608 298.481 56.309 268.253 56.309 236.55 Z M 400.883 96.384 C 364.9 60.322 315.895 38.325 261.032 38.325 C 206.166 38.325 157.161 60.322 121.179 96.384 C 86.886 130.753 65.343 176.976 63.395 228.839 L 63.42 228.889 C 63.412 228.897 63.402 228.906 63.393 228.913 C 63.299 231.446 63.25 233.991 63.25 236.55 C 63.25 269.94 71.342 301.163 85.755 328.615 C 94.921 331.475 105.091 333.812 116.168 335.616 C 161.358 342.978 220.112 341.094 282.259 328.18 C 344.407 315.266 397.539 293.897 433.61 269.649 C 443.18 263.215 451.467 256.646 458.37 249.999 C 458.663 245.558 458.811 241.075 458.811 236.55 C 458.811 210.039 453.71 184.893 444.393 161.916 C 444.273 161.864 444.152 161.811 444.03 161.759 L 444.15 161.319 C 434.146 136.879 419.367 114.909 400.883 96.384 Z M 121.179 376.716 C 157.161 412.78 206.166 434.774 261.032 434.774 C 315.895 434.774 364.9 412.78 400.883 376.716 C 432.282 345.245 452.993 303.838 457.758 257.26 C 451.628 262.692 444.654 268.039 436.945 273.221 C 400.399 297.789 346.207 319.584 283.536 332.608 C 220.864 345.633 160.941 347.551 115.155 340.092 C 105.834 338.574 97.037 336.654 88.889 334.351 C 97.706 349.867 108.583 364.091 121.179 376.716 Z"/>
</svg>
