<?xml version="1.0" encoding="utf-8"?>
<svg width="800px" height="800px" viewBox="0 0 24 24" xmlns="http://www.w3.org/2000/svg">
<path d="M 474.403 237.948 C 474.403 294.81 450.069 347.81 411.994 385.009 C 373.892 422.144 319.731 445.826 261.566 445.826 C 203.401 445.826 149.24 422.144 111.138 385.009 C 73.063 347.81 48.729 294.81 48.729 237.948 C 48.729 181.086 73.063 128.086 111.138 90.887 C 149.24 53.752 203.401 30.07 261.566 30.07 C 319.731 30.07 373.892 53.752 411.994 90.887 C 450.069 128.086 474.403 181.086 474.403 237.948 Z M 400.821 102.339 C 364.787 67.132 316.529 46.07 261.566 46.07 C 206.603 46.07 158.345 67.132 122.311 102.339 C 86.249 137.482 64.729 184.422 64.729 237.948 C 64.729 291.474 86.249 338.414 122.311 373.557 C 158.345 408.764 206.603 429.826 261.566 429.826 C 316.529 429.826 364.787 408.764 400.821 373.557 C 436.883 338.414 458.403 291.474 458.403 237.948 C 458.403 184.422 436.883 137.482 400.821 102.339 Z M 200.889 372.962 C 226.568 378.816 258.751 381.718 289.873 379.959 C 320.992 378.2 345.419 371.037 366.508 358.277 C 377.03 351.911 390.631 344.854 395.789 335.153 C 400.949 325.45 419.342 311.87 406.47 306.213 L 387.571 328.119 C 337.215 389.372 165.026 361.354 152.861 350.653 C 133.019 361.252 175.246 367.116 200.889 372.962 Z"/>
</svg>